<svg xmlns="http://www.w3.org/2000/svg" width="512" height="512" viewBox="0 0 512.001 512.001"><path d="M511.03 349.749c0-19.506-12.509-36.136-29.924-42.313V152.629l30.896-12.349L255.669 37.825 0 140.28l121.018 48.496v71.201c0 21.949 15.388 41.731 43.329 55.702 24.645 12.323 57.079 19.109 91.329 19.109s66.685-6.786 91.329-19.109c27.941-13.971 43.329-33.752 43.329-55.702V188.91l60.846-24.32v142.847c-17.415 6.176-29.924 22.807-29.924 42.313 0 17.844 10.467 33.287 25.584 40.516l-24.816 74.448 28.389 9.463 15.73-47.189 15.73 47.189 28.389-9.463-24.816-74.448c15.115-7.231 25.584-22.673 25.584-40.517zm-150.619-89.773c0 21.188-44.79 44.886-104.734 44.886-59.944 0-104.734-23.698-104.734-44.886v-59.209l104.727 41.968 104.742-41.866v59.107zm-104.727-49.472L80.445 140.28l175.239-70.224 175.691 70.224-175.691 70.224zm210.459 154.207c-8.25 0-14.962-6.712-14.962-14.962s6.712-14.962 14.962-14.962 14.962 6.712 14.962 14.962-6.712 14.962-14.962 14.962z" fill="#fff" data-original="#000000" style="--darkreader-inline-fill:#dcdad7" xmlns="http://www.w3.org/2000/svg"/></svg>